<svg width="82" height="25" viewBox="0 0 82 25" fill="none" xmlns="http://www.w3.org/2000/svg">
<path d="M45.7368 24.3112V19.0305H47.9707C48.2856 19.0305 48.5591 19.0878 48.791 19.2026C49.0229 19.3173 49.2012 19.476 49.3257 19.6786C49.4526 19.8813 49.5161 20.112 49.5161 20.3708C49.5161 20.5466 49.4844 20.7089 49.4209 20.8578C49.3574 21.0043 49.2671 21.1313 49.1499 21.2387C49.0352 21.3461 48.896 21.4291 48.7324 21.4877V21.517C48.9521 21.5756 49.1389 21.6672 49.2927 21.7917C49.4465 21.9138 49.5637 22.0627 49.6443 22.2385C49.7249 22.4118 49.7651 22.6047 49.7651 22.8171C49.7651 23.1027 49.698 23.3591 49.5637 23.5861C49.4319 23.8107 49.2439 23.9877 48.9998 24.1171C48.7556 24.2465 48.4688 24.3112 48.1392 24.3112H45.7368ZM47.8462 23.5495C48.0342 23.5495 48.2002 23.5178 48.3442 23.4543C48.4883 23.3884 48.5981 23.2944 48.6738 23.1723C48.752 23.0478 48.791 22.8976 48.791 22.7219C48.791 22.5607 48.752 22.4228 48.6738 22.308C48.5981 22.1909 48.4895 22.1017 48.3479 22.0407C48.2063 21.9797 48.0403 21.9492 47.8499 21.9492H46.689V23.5495H47.8462ZM47.718 21.2277C47.8962 21.2277 48.05 21.1996 48.1794 21.1435C48.3113 21.0849 48.4114 21.0019 48.4797 20.8945C48.5505 20.7846 48.5859 20.6552 48.5859 20.5063C48.5859 20.3549 48.5493 20.2255 48.4761 20.1181C48.4028 20.0082 48.2991 19.9252 48.1648 19.8691C48.033 19.8129 47.8792 19.7849 47.7034 19.7849H46.689V21.2277H47.718Z" fill="#FF4F40"/>
<path d="M52.823 24.3991C52.3665 24.3991 51.9795 24.3198 51.6621 24.1611C51.3472 23.9999 51.1091 23.7704 50.948 23.4726C50.7893 23.1723 50.71 22.8171 50.71 22.4069V19.0305H51.6987V22.3483C51.6987 22.7487 51.7927 23.049 51.9807 23.2492C52.1687 23.4494 52.4495 23.5495 52.823 23.5495C53.199 23.5495 53.4797 23.4494 53.6653 23.2492C53.8508 23.049 53.9436 22.7487 53.9436 22.3483V19.0305H54.9324V22.4069C54.9324 22.8195 54.853 23.1747 54.6943 23.4726C54.5381 23.7704 54.3013 23.9999 53.9839 24.1611C53.6689 24.3198 53.282 24.3991 52.823 24.3991Z" fill="#FF4F40"/>
<path d="M57.906 24.3991C57.5618 24.3991 57.2542 24.3491 56.9832 24.249C56.7122 24.1464 56.4814 23.9975 56.291 23.8022C56.103 23.6044 55.959 23.3627 55.8589 23.0771L56.7231 22.7072C56.7793 22.8732 56.8599 23.0197 56.9648 23.1467C57.0723 23.2736 57.2041 23.3749 57.3604 23.4506C57.519 23.5239 57.6973 23.5605 57.895 23.5605C58.0952 23.5605 58.2661 23.5349 58.4077 23.4836C58.5518 23.4299 58.6616 23.353 58.7373 23.2529C58.813 23.1528 58.8508 23.0307 58.8508 22.8867C58.8508 22.7304 58.813 22.6047 58.7373 22.5095C58.6641 22.4118 58.5554 22.3325 58.4114 22.2714C58.2673 22.2104 58.0684 22.1518 57.8145 22.0956C57.4141 22.0029 57.0894 21.9003 56.8403 21.788C56.5913 21.6733 56.3972 21.5182 56.2581 21.3229C56.1189 21.1252 56.0493 20.8725 56.0493 20.5649C56.0493 20.2206 56.1274 19.9277 56.2837 19.686C56.4399 19.4418 56.6597 19.2575 56.9429 19.133C57.2261 19.006 57.5557 18.9426 57.9316 18.9426C58.2637 18.9426 58.5579 18.9914 58.8142 19.0891C59.073 19.1867 59.2866 19.3283 59.4551 19.5139C59.6235 19.6994 59.7456 19.9216 59.8213 20.1804L58.9863 20.5429C58.9375 20.3867 58.863 20.2512 58.7629 20.1364C58.6628 20.0217 58.542 19.9338 58.4004 19.8727C58.2588 19.8093 58.1038 19.7775 57.9353 19.7775C57.7546 19.7775 57.5972 19.8044 57.4629 19.8581C57.3286 19.9094 57.2249 19.9863 57.1516 20.0888C57.0808 20.1889 57.0454 20.3098 57.0454 20.4514C57.0454 20.5881 57.0796 20.7004 57.1479 20.7883C57.2163 20.8762 57.3201 20.9482 57.4592 21.0043C57.5984 21.0605 57.79 21.1179 58.0342 21.1765C58.4565 21.2741 58.7959 21.3803 59.0522 21.4951C59.311 21.6074 59.5125 21.7648 59.6565 21.9675C59.803 22.1701 59.8762 22.4387 59.8762 22.7731C59.8762 23.1296 59.7957 23.4286 59.6345 23.6703C59.4758 23.912 59.2488 24.0939 58.9534 24.216C58.6604 24.3381 58.3113 24.3991 57.906 24.3991Z" fill="#FF4F40"/>
<path d="M60.9199 24.3149V19.0341H61.9087V24.3149H60.9199Z" fill="#FF4F40"/>
<path d="M63.2197 24.3112V19.0305H64.1975L66.3691 22.363C66.4082 22.424 66.446 22.4863 66.4827 22.5497C66.5217 22.6132 66.5559 22.6694 66.5852 22.7182H66.6072V19.0305H67.5483V24.3112H66.5779L64.3989 20.975C64.3574 20.9116 64.3184 20.8493 64.2817 20.7883C64.2451 20.7272 64.2122 20.6711 64.1829 20.6198H64.1609V24.3112H63.2197Z" fill="#FF4F40"/>
<path d="M68.8594 24.3112V19.0305H72.3091V19.8508H69.8152V21.2424H71.9905V22.0078H69.8152V23.4909H72.3091V24.3112H68.8594Z" fill="#FF4F40"/>
<path d="M75.1179 24.3991C74.7737 24.3991 74.4661 24.3491 74.1951 24.249C73.9241 24.1464 73.6934 23.9975 73.5029 23.8022C73.3149 23.6044 73.1709 23.3627 73.0708 23.0771L73.9351 22.7072C73.9912 22.8732 74.0718 23.0197 74.1768 23.1467C74.2842 23.2736 74.416 23.3749 74.5723 23.4506C74.731 23.5239 74.9092 23.5605 75.1069 23.5605C75.3071 23.5605 75.478 23.5349 75.6196 23.4836C75.7637 23.4299 75.8735 23.353 75.9492 23.2529C76.0249 23.1528 76.0627 23.0307 76.0627 22.8867C76.0627 22.7304 76.0249 22.6047 75.9492 22.5095C75.876 22.4118 75.7673 22.3325 75.6233 22.2714C75.4792 22.2104 75.2803 22.1518 75.0264 22.0956C74.626 22.0029 74.3013 21.9003 74.0522 21.788C73.8032 21.6733 73.6091 21.5182 73.47 21.3229C73.3308 21.1252 73.2612 20.8725 73.2612 20.5649C73.2612 20.2206 73.3394 19.9277 73.4956 19.686C73.6519 19.4418 73.8716 19.2575 74.1548 19.133C74.438 19.006 74.7676 18.9426 75.1436 18.9426C75.4756 18.9426 75.7698 18.9914 76.0261 19.0891C76.2849 19.1867 76.4985 19.3283 76.667 19.5139C76.8354 19.6994 76.9575 19.9216 77.0332 20.1804L76.1982 20.5429C76.1494 20.3867 76.075 20.2512 75.9749 20.1364C75.8748 20.0217 75.7539 19.9338 75.6123 19.8727C75.4707 19.8093 75.3157 19.7775 75.1472 19.7775C74.9666 19.7775 74.8091 19.8044 74.6748 19.8581C74.5405 19.9094 74.4368 19.9863 74.3635 20.0888C74.2927 20.1889 74.2573 20.3098 74.2573 20.4514C74.2573 20.5881 74.2915 20.7004 74.3599 20.7883C74.4282 20.8762 74.532 20.9482 74.6711 21.0043C74.8103 21.0605 75.002 21.1179 75.2461 21.1765C75.6685 21.2741 76.0078 21.3803 76.2642 21.4951C76.5229 21.6074 76.7244 21.7648 76.8684 21.9675C77.0149 22.1701 77.0881 22.4387 77.0881 22.7731C77.0881 23.1296 77.0076 23.4286 76.8464 23.6703C76.6877 23.912 76.4607 24.0939 76.1653 24.216C75.8723 24.3381 75.5232 24.3991 75.1179 24.3991Z" fill="#FF4F40"/>
<path d="M79.8787 24.3991C79.5344 24.3991 79.2268 24.3491 78.9558 24.249C78.6848 24.1464 78.4541 23.9975 78.2637 23.8022C78.0757 23.6044 77.9316 23.3627 77.8315 23.0771L78.6958 22.7072C78.752 22.8732 78.8325 23.0197 78.9375 23.1467C79.0449 23.2736 79.1768 23.3749 79.333 23.4506C79.4917 23.5239 79.6699 23.5605 79.8677 23.5605C80.0679 23.5605 80.2388 23.5349 80.3804 23.4836C80.5244 23.4299 80.6343 23.353 80.71 23.2529C80.7856 23.1528 80.8235 23.0307 80.8235 22.8867C80.8235 22.7304 80.7856 22.6047 80.71 22.5095C80.6367 22.4118 80.5281 22.3325 80.384 22.2714C80.24 22.2104 80.041 22.1518 79.7871 22.0956C79.3867 22.0029 79.062 21.9003 78.813 21.788C78.564 21.6733 78.3699 21.5182 78.2307 21.3229C78.0916 21.1252 78.022 20.8725 78.022 20.5649C78.022 20.2206 78.1001 19.9277 78.2563 19.686C78.4126 19.4418 78.6323 19.2575 78.9155 19.133C79.1987 19.006 79.5283 18.9426 79.9043 18.9426C80.2363 18.9426 80.5305 18.9914 80.7869 19.0891C81.0457 19.1867 81.2593 19.3283 81.4277 19.5139C81.5962 19.6994 81.7183 19.9216 81.7939 20.1804L80.959 20.5429C80.9102 20.3867 80.8357 20.2512 80.7356 20.1364C80.6355 20.0217 80.5146 19.9338 80.373 19.8727C80.2314 19.8093 80.0764 19.7775 79.908 19.7775C79.7273 19.7775 79.5698 19.8044 79.4355 19.8581C79.3013 19.9094 79.1975 19.9863 79.1243 20.0888C79.0535 20.1889 79.0181 20.3098 79.0181 20.4514C79.0181 20.5881 79.0522 20.7004 79.1206 20.7883C79.189 20.8762 79.2927 20.9482 79.4319 21.0043C79.571 21.0605 79.7627 21.1179 80.0068 21.1765C80.4292 21.2741 80.7686 21.3803 81.0249 21.4951C81.2837 21.6074 81.4851 21.7648 81.6292 21.9675C81.7756 22.1701 81.8489 22.4387 81.8489 22.7731C81.8489 23.1296 81.7683 23.4286 81.6072 23.6703C81.4485 23.912 81.2214 24.0939 80.926 24.216C80.6331 24.3381 80.2839 24.3991 79.8787 24.3991Z" fill="#FF4F40"/>
<path d="M69.084 2.14046C70.0826 1.13052 71.3573 0.438035 72.7481 0.149911C74.1389 -0.138212 75.5838 -0.00913949 76.9015 0.52093C78.2192 1.051 79.3509 1.95845 80.1548 3.12941C80.9586 4.30036 81.3987 5.68265 81.4198 7.1028C81.4461 8.05452 81.2769 9.00153 80.9226 9.88523C80.5683 10.7689 80.0364 11.5705 79.3599 12.2405C78.6861 12.9312 77.8783 13.477 76.986 13.8444C76.0937 14.2118 75.1358 14.393 74.171 14.3769C73.2039 14.4036 72.2424 14.2221 71.3516 13.8446C70.4608 13.4672 69.6615 12.9026 69.008 12.1892C67.7019 10.8403 66.98 9.03098 66.9988 7.15342C66.9951 6.2211 67.1777 5.29744 67.5357 4.43662C67.8938 3.5758 68.4202 2.79515 69.084 2.14046ZM74.1975 10.5596C74.8707 10.5881 75.5369 10.4143 76.1103 10.0607C76.6838 9.70712 77.1382 9.18989 77.4151 8.57568C77.6919 7.96147 77.7784 7.27842 77.6636 6.61458C77.5487 5.95073 77.2376 5.33651 76.7704 4.85106C76.3033 4.36561 75.7015 4.03118 75.0425 3.89088C74.3836 3.75057 73.6977 3.81082 73.0733 4.06386C72.4489 4.3169 71.9146 4.75112 71.5393 5.31058C71.1639 5.87004 70.9647 6.52909 70.9673 7.2028C70.9511 8.07613 71.2822 8.92019 71.8879 9.54958C72.4935 10.179 73.3242 10.5422 74.1975 10.5596Z" fill="#FF4F40"/>
<path d="M54.9611 14.0185V11.1716L60.582 3.89502H54.9611V0.362305L65.1092 0.362305V3.59255L60.1493 10.4851H65.211V14.0185H54.9611Z" fill="#FF4F40"/>
<path d="M39.6975 14.0184V0.362274L43.5123 0.362274L43.4617 2.19314C43.8589 1.51832 44.4349 0.966439 45.1261 0.598459C45.8173 0.23048 46.5968 0.0607263 47.3784 0.107954C50.2018 0.107954 52.0327 1.8882 52.0327 5.0166V14.0184H48.0142V6.61906C48.0142 4.71166 47.6074 3.84684 46.0561 3.84684C44.479 3.84684 43.6395 4.78758 43.6395 6.61906V14.0184H39.6975Z" fill="#FF4F40"/>
<path d="M24.8087 2.14259C25.8074 1.13286 27.082 0.44056 28.4727 0.152558C29.8634 -0.135445 31.3081 -0.00632241 32.6257 0.523723C33.9433 1.05377 35.075 1.96113 35.8788 3.13195C36.6826 4.30277 37.1227 5.68491 37.1439 7.10493C37.1702 8.05665 37.001 9.00366 36.6467 9.88737C36.2924 10.7711 35.7605 11.5727 35.084 12.2426C34.4103 12.9334 33.6025 13.4793 32.7102 13.8467C31.8179 14.2141 30.8599 14.3952 29.8951 14.379C28.928 14.4057 27.9665 14.2242 27.0757 13.8467C26.1849 13.4693 25.3857 12.9047 24.7322 12.1914C23.426 10.8424 22.7041 9.03311 22.7229 7.15555C22.7192 6.22318 22.9018 5.29946 23.26 4.43862C23.6182 3.57778 24.1447 2.79716 24.8087 2.14259ZM29.9204 10.5617C30.5936 10.5903 31.2598 10.4167 31.8334 10.0632C32.4069 9.70964 32.8614 9.19246 33.1384 8.57826C33.4153 7.96407 33.5019 7.28101 33.3871 6.61713C33.2723 5.95324 32.9613 5.33896 32.4942 4.85345C32.027 4.36793 31.4252 4.03344 30.7663 3.89309C30.1073 3.75273 29.4214 3.81294 28.797 4.06595C28.1726 4.31896 27.6382 4.75319 27.2628 5.31266C26.8874 5.87213 26.6882 6.5312 26.6908 7.20493C26.6744 8.07821 27.0054 8.92226 27.6109 9.55167C28.2165 10.1811 29.0472 10.5444 29.9204 10.5617Z" fill="#FF4F40"/>
<path d="M0 14.0184L0 0.362275L3.63704 0.362275V2.19314C4.00043 1.53422 4.54063 0.989892 5.19675 0.621477C5.85287 0.253062 6.59886 0.0752079 7.35063 0.107954C8.12314 0.0842289 8.88696 0.276312 9.55635 0.662638C10.2257 1.04896 10.7742 1.61424 11.1401 2.29499C12.5642 0.794374 13.658 0.107954 15.3623 0.107954C18.4395 0.107954 20.1691 1.83635 20.1691 5.0166V14.0184H16.2525V6.61906C16.2525 4.71166 15.8457 3.84684 14.3451 3.84684C12.8191 3.84684 12.0049 4.78758 12.0049 6.61906V14.0184H8.06297V6.61906C8.06297 4.71166 7.65556 3.84684 6.15494 3.84684C4.62902 3.84684 3.81481 4.78758 3.81481 6.61906V14.0184H0Z" fill="#FF4F40"/>
</svg>
