<svg width="53" height="41" viewBox="0 0 53 41" fill="none" xmlns="http://www.w3.org/2000/svg">
<mask id="mask0_6_684" style="mask-type:luminance" maskUnits="userSpaceOnUse" x="0" y="0" width="53" height="41">
<path d="M52.2117 0L0 0L0 40.0278H52.2117V0Z" fill="white"/>
</mask>
<g mask="url(#mask0_6_684)">
<path d="M48.726 33.84L48.671 33.959V35.928C48.356 35.604 47.92 35.43 47.409 35.43C46.603 35.43 45.918 35.842 45.548 36.491C45.308 36.848 45.178 37.28 45.178 37.778C45.178 39.065 46.114 39.996 47.322 39.996C47.703 39.996 48.029 39.898 48.29 39.736C48.432 39.66 48.563 39.563 48.682 39.444V39.898H49.618L49.738 39.844V33.862H48.737L48.726 33.84ZM48.563 38.449C48.345 38.795 47.964 39 47.518 39C46.767 39 46.255 38.46 46.255 37.681C46.255 37.183 46.462 36.783 46.81 36.566C46.984 36.48 47.191 36.426 47.431 36.426C48.203 36.426 48.726 37.01 48.726 37.778C48.726 38.027 48.671 38.254 48.573 38.449H48.563Z" fill="#152230"/>
<path d="M7.802 35.43H7.759C7.127 35.43 6.627 35.668 6.289 36.155C5.974 35.679 5.48401 35.43 4.87401 35.43C4.34101 35.43 3.949 35.614 3.655 35.993V35.538H2.65401L2.599 35.657V39.877H3.535L3.655 39.822V37.453C3.655 37.031 3.797 36.728 4.047 36.545C4.199 36.469 4.374 36.426 4.58 36.426C5.201 36.426 5.51601 36.826 5.51601 37.54V39.887H6.45201L6.57201 39.833V37.464C6.57201 37.042 6.72501 36.718 6.98601 36.545C7.13801 36.469 7.31201 36.436 7.49701 36.436C8.12901 36.436 8.433 36.837 8.433 37.551V39.898H9.369L9.489 39.844V37.161C9.489 36.133 8.814 35.463 7.769 35.452L7.802 35.43Z" fill="#152230"/>
<path d="M31.3669 35.43C30.8989 35.43 30.5389 35.614 30.2669 35.971V35.528H29.2769L29.2219 35.647V39.866H30.1589L30.2779 39.812V37.41C30.2779 36.977 30.3979 36.674 30.6269 36.512H30.6479C30.6479 36.512 30.6589 36.49 30.6699 36.49C30.7789 36.447 30.9199 36.415 31.0729 36.415C31.2579 36.415 31.4539 36.436 31.6609 36.523L31.7689 36.48L32.0739 35.549H32.0419C31.8129 35.452 31.5409 35.419 31.3669 35.419V35.43Z" fill="#152230"/>
<path d="M26.3169 35.43C25.4899 35.43 24.8259 35.82 24.4559 36.458C24.2159 36.815 24.0859 37.259 24.0859 37.778C24.0859 39.119 24.9999 39.996 26.2839 39.996C26.7959 39.996 27.2859 39.887 27.7209 39.628C27.8729 39.552 28.0149 39.455 28.1559 39.336L28.1779 39.314L27.6879 38.578L27.6559 38.6C27.3079 38.881 26.8609 39.033 26.4259 39.033C26.0449 39.033 25.3809 38.914 25.1959 38.124H28.2329L28.3519 38.07V38.037C28.3629 37.918 28.3739 37.81 28.3739 37.68C28.3739 36.339 27.5359 35.43 26.3059 35.43H26.3169ZM25.6639 36.501C25.8159 36.426 26.0009 36.371 26.2079 36.371C26.7739 36.371 27.1439 36.696 27.2639 37.269H25.1959C25.2609 36.912 25.4249 36.653 25.6529 36.49L25.6639 36.501Z" fill="#152230"/>
<path d="M17.957 37.226L17.522 37.161C17.086 37.107 16.825 37.021 16.825 36.783C16.825 36.653 16.891 36.545 16.988 36.469C17.119 36.404 17.293 36.371 17.511 36.371C18.055 36.371 18.588 36.577 18.85 36.729L18.948 36.685L19.383 35.885L19.361 35.863C18.915 35.571 18.295 35.419 17.598 35.419C16.76 35.419 16.15 35.722 15.911 36.231C15.791 36.415 15.726 36.642 15.726 36.902C15.726 37.594 16.248 38.016 17.206 38.146L17.642 38.211C18.153 38.286 18.393 38.416 18.393 38.654C18.393 38.708 18.382 38.752 18.36 38.795C18.229 38.957 17.935 39.044 17.5 39.044C16.814 39.044 16.357 38.806 16.096 38.611L16.063 38.589L15.584 39.357L15.541 39.433C16.052 39.801 16.695 39.985 17.391 39.985C17.957 39.985 18.414 39.866 18.741 39.66C19.198 39.411 19.47 39.022 19.47 38.524C19.47 37.81 18.959 37.378 17.946 37.226H17.957Z" fill="#152230"/>
<path d="M44.3179 35.43C43.8499 35.43 43.4909 35.614 43.2189 35.971V35.528H42.2279L42.174 35.647V39.866H43.1099L43.2289 39.812V37.41C43.2289 36.977 43.3489 36.674 43.5779 36.512H43.5999L43.6209 36.49C43.7299 36.447 43.8719 36.415 44.0239 36.415C44.2089 36.415 44.4049 36.436 44.6119 36.523L44.7209 36.48L45.0249 35.549H44.9929C44.7639 35.452 44.4919 35.419 44.3179 35.419V35.43Z" fill="#152230"/>
<path d="M23.325 38.763C23.063 38.914 22.769 39.001 22.519 39.001C22.116 39.001 21.931 38.784 21.931 38.33V36.513H23.335L23.455 36.459V35.55H21.931V34.273H20.919L20.865 34.392V35.55H20.048L19.994 35.669V36.513H20.865V38.438C20.865 39.423 21.246 40.007 22.356 40.007C22.737 40.007 23.172 39.899 23.477 39.704C23.531 39.672 23.586 39.65 23.629 39.617H23.651L23.357 38.752L23.325 38.774V38.763Z" fill="#152230"/>
<path d="M33.89 36.555C34.064 36.469 34.26 36.426 34.478 36.426C34.88 36.426 35.251 36.555 35.599 36.804L35.697 36.761L36.176 35.96L36.154 35.939C35.686 35.571 35.24 35.43 34.587 35.43C33.683 35.43 32.965 35.841 32.573 36.501C32.334 36.858 32.203 37.291 32.203 37.778C32.203 39.054 33.106 39.996 34.489 39.996C35 39.996 35.381 39.898 35.751 39.682C35.882 39.617 36.012 39.53 36.143 39.433L36.165 39.411L35.686 38.611L35.653 38.632C35.294 38.881 34.935 39.011 34.554 39.011C33.814 39.011 33.291 38.459 33.291 37.691C33.291 37.194 33.509 36.783 33.868 36.566L33.89 36.555Z" fill="#152230"/>
<path d="M13.712 35.657V35.928C13.397 35.603 12.961 35.43 12.45 35.43C11.644 35.43 10.959 35.841 10.589 36.49C10.349 36.847 10.219 37.28 10.219 37.778C10.219 39.065 11.155 39.996 12.363 39.996C12.744 39.996 13.07 39.898 13.331 39.736C13.473 39.66 13.604 39.563 13.723 39.444V39.898H14.659L14.779 39.844V35.56H13.778L13.723 35.679L13.712 35.657ZM13.614 38.438C13.397 38.784 13.016 38.989 12.57 38.989C11.819 38.989 11.307 38.449 11.307 37.67C11.307 37.172 11.514 36.772 11.862 36.555C12.036 36.469 12.243 36.415 12.483 36.415C13.255 36.415 13.778 36.999 13.778 37.767C13.778 38.016 13.723 38.243 13.625 38.438H13.614Z" fill="#152230"/>
<path d="M40.019 35.657V35.928C39.703 35.603 39.268 35.43 38.757 35.43C37.951 35.43 37.265 35.841 36.895 36.49C36.656 36.847 36.525 37.28 36.525 37.778C36.525 39.065 37.461 39.996 38.669 39.996C39.05 39.996 39.377 39.898 39.638 39.736C39.78 39.66 39.91 39.563 40.03 39.444V39.898H40.966L41.086 39.844V35.56H40.084L40.03 35.679L40.019 35.657ZM39.921 38.438C39.703 38.784 39.322 38.989 38.876 38.989C38.125 38.989 37.614 38.449 37.614 37.67C37.614 37.172 37.82 36.772 38.169 36.555C38.343 36.469 38.55 36.415 38.789 36.415C39.562 36.415 40.084 36.999 40.084 37.767C40.084 38.016 40.03 38.243 39.932 38.438H39.921Z" fill="#152230"/>
<path d="M36.079 0C27.187 0 19.949 7.13 19.949 15.903C19.949 24.677 27.187 31.806 36.079 31.806C44.972 31.806 52.21 24.677 52.21 15.903C52.21 7.13 44.972 0 36.079 0Z" fill="url(#paint0_linear_6_684)"/>
<path d="M16.13 0C7.238 0 0 7.13 0 15.903C0 24.677 7.238 31.806 16.13 31.806C25.023 31.806 32.261 24.677 32.261 15.903C32.261 7.13 25.034 0 16.13 0Z" fill="url(#paint1_linear_6_684)"/>
<path d="M31.891 15.903C31.891 10.992 29.649 6.59897 26.111 3.66797C22.574 6.59897 20.332 10.992 20.332 15.903C20.332 20.815 22.574 25.207 26.111 28.139C29.649 25.207 31.891 20.815 31.891 15.903Z" fill="#737373"/>
<path d="M50.676 25.77V25.261H50.883V25.153H50.349V25.261H50.556V25.77H50.676ZM51.71 25.77V25.153H51.547L51.362 25.575L51.177 25.153H51.013V25.77H51.133V25.304L51.307 25.705H51.427L51.601 25.304V25.77H51.721H51.71Z" fill="#999999"/>
<path d="M51.254 39.196C51.308 39.196 51.373 39.207 51.417 39.228C51.471 39.25 51.515 39.282 51.558 39.315C51.602 39.358 51.624 39.401 51.656 39.445C51.678 39.499 51.689 39.553 51.689 39.607C51.689 39.661 51.678 39.715 51.656 39.769C51.635 39.823 51.602 39.867 51.558 39.899C51.515 39.942 51.471 39.964 51.417 39.986C51.362 40.007 51.308 40.018 51.254 40.018C51.199 40.018 51.134 40.007 51.079 39.986C51.025 39.964 50.981 39.932 50.938 39.899C50.894 39.856 50.873 39.812 50.851 39.769C50.829 39.715 50.818 39.661 50.818 39.607C50.818 39.553 50.829 39.499 50.851 39.445C50.873 39.391 50.905 39.347 50.938 39.315C50.981 39.272 51.025 39.25 51.079 39.228C51.134 39.207 51.188 39.196 51.254 39.196ZM51.254 39.942C51.254 39.942 51.341 39.942 51.384 39.921C51.428 39.899 51.46 39.877 51.493 39.856C51.526 39.823 51.547 39.791 51.558 39.748C51.58 39.704 51.58 39.661 51.58 39.618C51.58 39.574 51.58 39.531 51.558 39.488C51.537 39.445 51.515 39.412 51.493 39.38C51.471 39.347 51.428 39.326 51.384 39.315C51.341 39.293 51.297 39.293 51.254 39.293C51.21 39.293 51.167 39.293 51.123 39.315C51.079 39.336 51.047 39.358 51.014 39.38C50.981 39.412 50.96 39.445 50.949 39.488C50.938 39.531 50.927 39.574 50.927 39.618C50.927 39.661 50.927 39.704 50.949 39.748C50.971 39.791 50.992 39.823 51.014 39.856C51.047 39.888 51.079 39.91 51.123 39.921C51.167 39.942 51.21 39.942 51.254 39.942ZM51.275 39.423C51.275 39.423 51.362 39.434 51.395 39.455C51.428 39.477 51.439 39.51 51.439 39.542C51.439 39.574 51.439 39.596 51.406 39.618C51.384 39.639 51.352 39.65 51.308 39.661L51.439 39.812H51.341L51.221 39.661H51.177V39.812H51.09V39.423H51.275ZM51.177 39.499V39.607H51.275C51.275 39.607 51.319 39.607 51.33 39.596C51.341 39.596 51.352 39.574 51.352 39.553C51.352 39.531 51.352 39.52 51.33 39.51C51.319 39.51 51.297 39.499 51.275 39.499H51.177Z" fill="#999999"/>
<path d="M36.079 0.639C44.635 0.639 51.568 7.476 51.568 15.914C51.568 24.352 44.635 31.189 36.079 31.189C27.524 31.189 20.591 24.352 20.591 15.914C20.591 7.476 27.524 0.639 36.079 0.639ZM36.079 0C27.187 0 19.949 7.13 19.949 15.903C19.949 24.677 27.187 31.806 36.079 31.806C44.972 31.806 52.21 24.677 52.21 15.903C52.21 7.13 44.972 0 36.079 0Z" fill="url(#paint2_linear_6_684)"/>
<path d="M36.078 0.639C44.633 0.639 51.566 7.476 51.566 15.914C51.566 24.352 44.633 31.189 36.078 31.189C27.523 31.189 20.589 24.352 20.589 15.914C20.589 7.476 27.523 0.639 36.078 0.639ZM36.078 0C27.185 0 19.947 7.13 19.947 15.903C19.947 24.677 27.185 31.806 36.078 31.806C44.97 31.806 52.208 24.677 52.208 15.903C52.208 7.13 44.97 0 36.078 0Z" fill="url(#paint3_linear_6_684)"/>
<path d="M36.078 0.639C44.633 0.639 51.566 7.476 51.566 15.914C51.566 24.352 44.633 31.189 36.078 31.189C27.523 31.189 20.589 24.352 20.589 15.914C20.589 7.476 27.523 0.639 36.078 0.639ZM36.078 0C27.185 0 19.947 7.13 19.947 15.903C19.947 24.677 27.185 31.806 36.078 31.806C44.97 31.806 52.208 24.677 52.208 15.903C52.208 7.13 44.97 0 36.078 0Z" fill="url(#paint4_linear_6_684)"/>
<path d="M22.606 29.783C14.834 33.31 5.63697 29.945 2.05597 22.286C-1.51403 14.616 1.89297 5.55001 9.66397 2.03401C17.436 -1.49299 26.633 1.872 30.214 9.531C33.784 17.19 30.377 26.267 22.606 29.783ZM22.878 30.356C30.965 26.689 34.513 17.234 30.801 9.261C27.079 1.298 17.479 -2.207 9.39197 1.45C1.31597 5.117 -2.24303 14.572 1.46797 22.546C5.17997 30.519 14.78 34.013 22.867 30.356H22.878Z" fill="url(#paint5_linear_6_684)"/>
<path d="M16.13 0C7.238 0 0 7.13 0 15.903C0 24.677 7.238 31.806 16.13 31.806C25.023 31.806 32.261 24.677 32.261 15.903C32.261 7.13 25.034 0 16.13 0ZM16.13 0.639C24.685 0.639 31.619 7.476 31.619 15.914C31.619 24.352 24.685 31.189 16.13 31.189C7.575 31.189 0.641998 24.342 0.641998 15.903C0.641998 7.465 7.575 0.639 16.13 0.639Z" fill="url(#paint6_linear_6_684)"/>
<path d="M9.48901 39.79V37.139C9.48901 36.144 8.84702 35.473 7.80202 35.462C7.25802 35.462 6.69202 35.625 6.30002 36.209C6.00602 35.744 5.53802 35.462 4.88503 35.462C4.42803 35.462 3.98103 35.592 3.63303 36.09V35.571H2.69702V39.79H3.63303V37.453C3.63303 36.717 4.04702 36.328 4.67802 36.328C5.30902 36.328 5.61401 36.728 5.61401 37.442V39.79H6.55002V37.453C6.55002 36.717 6.98502 36.328 7.59502 36.328C8.20502 36.328 8.53102 36.728 8.53102 37.442V39.79H9.46703H9.48901ZM23.421 35.571H21.897V34.294H20.961V35.571H20.09V36.414H20.961V38.34C20.961 39.325 21.342 39.909 22.452 39.909C22.855 39.909 23.323 39.79 23.617 39.584L23.345 38.794C23.062 38.957 22.757 39.032 22.517 39.032C22.049 39.032 21.897 38.751 21.897 38.329V36.425H23.421V35.581V35.571ZM31.377 35.462C30.844 35.462 30.485 35.711 30.245 36.079V35.571H29.32V39.79H30.256V37.421C30.256 36.717 30.561 36.339 31.17 36.339C31.355 36.339 31.551 36.36 31.758 36.447L32.041 35.581C31.834 35.506 31.562 35.462 31.377 35.462ZM19.361 35.906C18.915 35.614 18.294 35.462 17.609 35.462C16.52 35.462 15.823 35.971 15.823 36.815C15.823 37.507 16.346 37.929 17.304 38.059L17.739 38.124C18.251 38.199 18.49 38.329 18.49 38.567C18.49 38.892 18.153 39.076 17.511 39.076C16.868 39.076 16.4 38.87 16.085 38.632L15.649 39.346C16.161 39.714 16.803 39.898 17.5 39.898C18.74 39.898 19.459 39.325 19.459 38.524C19.459 37.778 18.893 37.388 17.957 37.258L17.521 37.193C17.119 37.139 16.792 37.064 16.792 36.782C16.792 36.469 17.097 36.285 17.609 36.285C18.153 36.285 18.686 36.49 18.947 36.642L19.35 35.895L19.361 35.906ZM44.34 35.462C43.807 35.462 43.448 35.711 43.208 36.079V35.571H42.283V39.79H43.219V37.421C43.219 36.717 43.524 36.339 44.133 36.339C44.318 36.339 44.514 36.36 44.721 36.447L45.004 35.581C44.797 35.506 44.525 35.462 44.34 35.462ZM32.324 37.68C32.324 38.957 33.227 39.898 34.61 39.898C35.252 39.898 35.687 39.757 36.155 39.389L35.709 38.643C35.361 38.892 34.991 39.022 34.588 39.022C33.848 39.022 33.293 38.481 33.293 37.669C33.293 36.858 33.837 36.328 34.588 36.317C34.991 36.317 35.361 36.447 35.709 36.696L36.155 35.949C35.687 35.592 35.263 35.441 34.61 35.441C33.227 35.441 32.324 36.382 32.324 37.659V37.68ZM41.053 37.68V35.571H40.117V36.079C39.823 35.7 39.377 35.462 38.767 35.462C37.57 35.462 36.623 36.393 36.623 37.68C36.623 38.968 37.559 39.898 38.767 39.898C39.377 39.898 39.823 39.66 40.117 39.281V39.79H41.053V37.68ZM37.581 37.68C37.581 36.934 38.071 36.328 38.876 36.328C39.682 36.328 40.172 36.912 40.172 37.68C40.172 38.448 39.649 39.032 38.876 39.032C38.104 39.032 37.581 38.427 37.581 37.68ZM26.327 35.462C25.075 35.462 24.193 36.36 24.193 37.68C24.193 39 25.108 39.898 26.392 39.898C27.034 39.898 27.633 39.736 28.144 39.303L27.687 38.621C27.328 38.903 26.871 39.065 26.447 39.065C25.848 39.065 25.304 38.794 25.162 38.026H28.34C28.34 37.907 28.362 37.799 28.362 37.669C28.362 36.35 27.524 35.452 26.327 35.452V35.462ZM26.305 36.285C26.904 36.285 27.295 36.652 27.393 37.312H25.173C25.271 36.707 25.652 36.285 26.316 36.285H26.305ZM49.695 37.68V33.872H48.759V36.079C48.465 35.7 48.019 35.462 47.41 35.462C46.212 35.462 45.265 36.393 45.265 37.68C45.265 38.968 46.201 39.898 47.41 39.898C48.019 39.898 48.465 39.66 48.759 39.281V39.79H49.695V37.68ZM46.223 37.68C46.223 36.934 46.713 36.328 47.518 36.328C48.324 36.328 48.814 36.912 48.814 37.68C48.814 38.448 48.291 39.032 47.518 39.032C46.746 39.032 46.223 38.427 46.223 37.68ZM14.735 37.68V35.571H13.799V36.079C13.505 35.7 13.059 35.462 12.449 35.462C11.252 35.462 10.305 36.393 10.305 37.68C10.305 38.968 11.241 39.898 12.449 39.898C13.059 39.898 13.505 39.66 13.799 39.281V39.79H14.735V37.68ZM11.263 37.68C11.263 36.934 11.753 36.328 12.558 36.328C13.364 36.328 13.853 36.912 13.853 37.68C13.853 38.448 13.331 39.032 12.558 39.032C11.785 39.032 11.263 38.427 11.263 37.68Z" fill="url(#paint7_linear_6_684)"/>
</g>
<defs>
<linearGradient id="paint0_linear_6_684" x1="22.91" y1="25.077" x2="49.155" y2="6.57901" gradientUnits="userSpaceOnUse">
<stop stop-color="#BFBFBF"/>
<stop offset="0.18" stop-color="#BFBFBF"/>
<stop offset="0.52" stop-color="#A6A6A6"/>
<stop offset="0.72" stop-color="#A9A9A9"/>
<stop offset="0.89" stop-color="#B4B4B4"/>
<stop offset="1" stop-color="#BFBFBF"/>
</linearGradient>
<linearGradient id="paint1_linear_6_684" x1="2.96" y1="25.077" x2="29.205" y2="6.57901" gradientUnits="userSpaceOnUse">
<stop stop-color="#363636"/>
<stop offset="0.05" stop-color="#414141"/>
<stop offset="0.12" stop-color="#4A4A4A"/>
<stop offset="0.23" stop-color="#4D4D4D"/>
<stop offset="0.5" stop-color="#3C3C3C"/>
<stop offset="0.59" stop-color="#363636"/>
<stop offset="0.73" stop-color="#393939"/>
<stop offset="0.86" stop-color="#444444"/>
<stop offset="0.98" stop-color="#565656"/>
<stop offset="1" stop-color="#595959"/>
</linearGradient>
<linearGradient id="paint2_linear_6_684" x1="22.91" y1="25.077" x2="49.155" y2="6.57901" gradientUnits="userSpaceOnUse">
<stop stop-color="#3C3630"/>
<stop offset="0.21" stop-color="#3F3A33"/>
<stop offset="0.43" stop-color="#48463E"/>
<stop offset="0.5" stop-color="#4E4C43"/>
<stop offset="0.55" stop-color="#4A5446"/>
<stop offset="0.62" stop-color="#426952"/>
<stop offset="0.64" stop-color="#417156"/>
<stop offset="0.66" stop-color="#5D8671"/>
<stop offset="0.71" stop-color="#99B1A6"/>
<stop offset="0.74" stop-color="#C7D2CD"/>
<stop offset="0.77" stop-color="#E3E5E5"/>
<stop offset="0.78" stop-color="#EEEDEF"/>
<stop offset="0.81" stop-color="#E9E8EA"/>
<stop offset="0.84" stop-color="#DCDBDC"/>
<stop offset="0.87" stop-color="#C7C6C5"/>
<stop offset="0.9" stop-color="#A9A7A4"/>
<stop offset="0.93" stop-color="#82817C"/>
<stop offset="0.96" stop-color="#4E4C43"/>
<stop offset="0.98" stop-color="#4E4C43"/>
<stop offset="1" stop-color="#4D3C3C"/>
</linearGradient>
<linearGradient id="paint3_linear_6_684" x1="30.091" y1="11.738" x2="42.84" y2="20.714" gradientUnits="userSpaceOnUse">
<stop stop-color="#3C3630"/>
<stop offset="0.11" stop-color="#45403B"/>
<stop offset="0.31" stop-color="#5F5C58"/>
<stop offset="0.57" stop-color="#898989"/>
<stop offset="0.58" stop-color="#8C8C8C"/>
<stop offset="0.67" stop-color="#828080"/>
<stop offset="0.83" stop-color="#6B6263"/>
<stop offset="1" stop-color="#4D3C3C"/>
</linearGradient>
<linearGradient id="paint4_linear_6_684" x1="22.908" y1="25.077" x2="49.153" y2="6.57901" gradientUnits="userSpaceOnUse">
<stop stop-color="#3C3630"/>
<stop offset="0.05" stop-color="#3F3A33"/>
<stop offset="0.1" stop-color="#48463E"/>
<stop offset="0.11" stop-color="#4E4C43"/>
<stop offset="0.12" stop-color="#514E42"/>
<stop offset="0.13" stop-color="#5E5542"/>
<stop offset="0.14" stop-color="#746344"/>
<stop offset="0.15" stop-color="#927445"/>
<stop offset="0.16" stop-color="#B98B49"/>
<stop offset="0.17" stop-color="#ECAF56"/>
<stop offset="0.18" stop-color="#F6E796"/>
<stop offset="0.19" stop-color="#F8F1A3"/>
<stop offset="0.2" stop-color="#F9F3B3"/>
<stop offset="0.22" stop-color="#FCF9DB"/>
<stop offset="0.24" stop-color="#FEFDF5"/>
<stop offset="0.25" stop-color="white"/>
<stop offset="0.26" stop-color="#FEFDF5"/>
<stop offset="0.27" stop-color="#FCF9DC"/>
<stop offset="0.29" stop-color="#F9F3B4"/>
<stop offset="0.3" stop-color="#F8F1A3"/>
<stop offset="0.31" stop-color="#F0EC9B"/>
<stop offset="0.32" stop-color="#DCE187"/>
<stop offset="0.33" stop-color="#CBD777"/>
<stop offset="0.36" stop-color="#D3E5D7"/>
<stop offset="0.42" stop-color="#A3C7E9"/>
<stop offset="0.44" stop-color="#91B2DC"/>
<stop offset="0.47" stop-color="#809ED0"/>
<stop offset="0.48" stop-color="#7A97CB"/>
<stop offset="0.5" stop-color="#809ACD"/>
<stop offset="0.53" stop-color="#91A3D1"/>
<stop offset="0.54" stop-color="#97A6D3"/>
<stop offset="0.57" stop-color="#A2C4E7"/>
<stop offset="0.64" stop-color="#C6E2F7"/>
<stop offset="0.68" stop-color="#E6F2FB"/>
<stop offset="0.75" stop-color="white"/>
<stop offset="0.81" stop-color="#FEFBE2"/>
<stop offset="0.84" stop-color="#FDF4A3"/>
<stop offset="0.87" stop-color="#FCEF6D"/>
<stop offset="0.89" stop-color="#F3C761"/>
<stop offset="0.91" stop-color="#D38DB7"/>
<stop offset="0.92" stop-color="#24261E"/>
<stop offset="0.95" stop-color="#191A15"/>
<stop offset="0.96" stop-color="#F4D8AA"/>
<stop offset="0.97" stop-color="#F3F8F6"/>
<stop offset="0.98" stop-color="#2F6E4D"/>
<stop offset="1" stop-color="#4D3C3C"/>
</linearGradient>
<linearGradient id="paint5_linear_6_684" x1="24.16" y1="2.262" x2="8.12198" y2="29.859" gradientUnits="userSpaceOnUse">
<stop offset="0.07" stop-color="#4E4C43"/>
<stop offset="0.08" stop-color="#534C46"/>
<stop offset="0.11" stop-color="#594E4B"/>
<stop offset="0.13" stop-color="#655A58"/>
<stop offset="0.18" stop-color="#847C7A"/>
<stop offset="0.25" stop-color="#B9B3B2"/>
<stop offset="0.32" stop-color="#FAF8FA"/>
<stop offset="0.34" stop-color="#FBF4CA"/>
<stop offset="0.4" stop-color="#FCEF6D"/>
<stop offset="0.43" stop-color="#F0BD55"/>
<stop offset="0.44" stop-color="#E79F3B"/>
<stop offset="0.45" stop-color="#E59736"/>
<stop offset="0.46" stop-color="#CD8F35"/>
<stop offset="0.47" stop-color="#A4853C"/>
<stop offset="0.48" stop-color="#757A50"/>
<stop offset="0.49" stop-color="#757A5A"/>
<stop offset="0.5" stop-color="#877C6B"/>
<stop offset="0.51" stop-color="#A48388"/>
<stop offset="0.52" stop-color="#D38DB7"/>
<stop offset="0.53" stop-color="#CA5B95"/>
<stop offset="0.55" stop-color="#BF81A5"/>
<stop offset="0.56" stop-color="#876173"/>
<stop offset="0.57" stop-color="#3C3630"/>
<stop offset="0.8" stop-color="#302F28"/>
</linearGradient>
<linearGradient id="paint6_linear_6_684" x1="2.96" y1="25.077" x2="29.205" y2="6.57901" gradientUnits="userSpaceOnUse">
<stop offset="0.01" stop-color="#24211A"/>
<stop offset="0.03" stop-color="#5F5097"/>
<stop offset="0.05" stop-color="#AC7AAD"/>
<stop offset="0.07" stop-color="#C3297C"/>
<stop offset="0.09" stop-color="#E49140"/>
<stop offset="0.12" stop-color="#F2E866"/>
<stop offset="0.13" stop-color="#D6DF91"/>
<stop offset="0.14" stop-color="#CAC08F"/>
<stop offset="0.15" stop-color="#BD8C81"/>
<stop offset="0.16" stop-color="#E3B667"/>
<stop offset="0.17" stop-color="#F3C761"/>
<stop offset="0.19" stop-color="#FDF4A3"/>
<stop offset="0.2" stop-color="#FCED5C"/>
<stop offset="0.22" stop-color="#FDF49A"/>
<stop offset="0.24" stop-color="#FEFCE2"/>
<stop offset="0.25" stop-color="white"/>
<stop offset="0.3" stop-color="#F5FAFD"/>
<stop offset="0.36" stop-color="#EAF3EC"/>
<stop offset="0.37" stop-color="#FAF4BD"/>
<stop offset="0.38" stop-color="#FCF5B7"/>
<stop offset="0.4" stop-color="#D1DEA1"/>
<stop offset="0.41" stop-color="#CDDCAA"/>
<stop offset="0.42" stop-color="#B0D0EE"/>
<stop offset="0.45" stop-color="#9BB3DB"/>
<stop offset="0.46" stop-color="#97A6D3"/>
<stop offset="0.48" stop-color="#9C9DCA"/>
<stop offset="0.49" stop-color="#A196C4"/>
<stop offset="0.5" stop-color="#8F96C7"/>
<stop offset="0.51" stop-color="#7A97CB"/>
<stop offset="0.53" stop-color="#809ED0"/>
<stop offset="0.55" stop-color="#91B2DC"/>
<stop offset="0.57" stop-color="#A3C7E9"/>
<stop offset="0.63" stop-color="#D3E5D7"/>
<stop offset="0.7" stop-color="#F8F1A3"/>
<stop offset="0.71" stop-color="#F9F3B4"/>
<stop offset="0.75" stop-color="#FCF9DC"/>
<stop offset="0.77" stop-color="#FEFDF5"/>
<stop offset="0.79" stop-color="white"/>
<stop offset="0.8" stop-color="#FEFDF5"/>
<stop offset="0.81" stop-color="#FCF9DB"/>
<stop offset="0.83" stop-color="#F9F3B3"/>
<stop offset="0.84" stop-color="#F8F1A3"/>
<stop offset="0.85" stop-color="#F8F097"/>
<stop offset="0.86" stop-color="#FAEE76"/>
<stop offset="0.87" stop-color="#FCED5C"/>
<stop offset="0.89" stop-color="#EBAA4F"/>
<stop offset="0.9" stop-color="#ECAC50"/>
<stop offset="0.91" stop-color="#EEB251"/>
<stop offset="0.94" stop-color="#98789C"/>
<stop offset="0.95" stop-color="#776076"/>
<stop offset="0.96" stop-color="#5D4E56"/>
<stop offset="0.97" stop-color="#4A4041"/>
<stop offset="0.98" stop-color="#403834"/>
<stop offset="0.99" stop-color="#3C3630"/>
<stop offset="1" stop-color="#3C3630"/>
</linearGradient>
<linearGradient id="paint7_linear_6_684" x1="39.431" y1="49.991" x2="13.955" y2="24.37" gradientUnits="userSpaceOnUse">
<stop stop-color="#999999"/>
<stop offset="0.1" stop-color="#B3B3B3"/>
<stop offset="0.24" stop-color="#B0B0B0"/>
<stop offset="0.43" stop-color="#BFBFBF"/>
<stop offset="0.61" stop-color="#BFBFBF"/>
<stop offset="0.71" stop-color="#999999"/>
<stop offset="0.8" stop-color="#B3B3B3"/>
<stop offset="1" stop-color="#999999"/>
</linearGradient>
</defs>
</svg>
