<svg width="33" height="25" viewBox="0 0 33 25" fill="none" xmlns="http://www.w3.org/2000/svg">
<mask id="path-1-outside-1_6_720" maskUnits="userSpaceOnUse" x="-0.253662" y="-0.253723" width="33" height="25" fill="black">
<rect fill="white" x="-0.253662" y="-0.253723" width="33" height="25"/>
<path d="M11.0833 15.343V16.5685L10.2102 22.4777L9.37524 23.3127C8.66188 23.3127 9.36419 23.3146 9.37524 23.3146L4.5481 23.3166C2.45223 23.3165 0.746557 21.6107 0.746338 19.5148V15.9865L1.14185 15.6154H7.62915C7.64846 15.6154 7.6694 15.6136 7.68872 15.6066L9.58325 14.9865H10.6956L11.0833 15.343ZM27.804 0.746277C29.9 0.746277 31.6056 2.452 31.6057 4.54803V8.04803L30.7864 8.59491H21.8059C21.7551 8.59496 21.706 8.61382 21.6692 8.65057L20.9885 9.33124C20.9535 9.36805 20.932 9.41713 20.9319 9.46796V16.6408L21.759 22.6047L20.9299 23.3166H11.2747L10.5989 22.4777L11.4661 16.6115C11.4678 16.6027 11.468 16.592 11.468 16.5832V7.63104C11.468 7.61174 11.4664 7.5939 11.4612 7.57635L10.4075 3.95526V1.34784L11.137 0.750183H20.6838L21.5139 1.42206V5.06854C21.5139 5.17569 21.6002 5.26172 21.7073 5.2619C21.8145 5.2619 21.9006 5.17581 21.9006 5.06854V1.42206L22.6604 0.750183H27.803L27.804 0.746277ZM23.9827 15.6057C24.0019 15.6126 24.0232 15.6163 24.0442 15.6164L24.0461 15.6125H31.1204L31.6077 16.0236V19.5129C31.6077 21.609 29.902 23.3146 27.8059 23.3146H23.0881L22.1418 22.5353L21.3186 16.6008V15.4016L21.7834 14.9846H22.1223L23.9827 15.6057ZM9.90161 9.57538C9.91734 9.58056 9.93494 9.58221 9.95239 9.58221H10.6604L11.0842 10.008V14.2131L10.6975 14.5998H9.55298C9.53367 14.5998 9.51273 14.6016 9.49341 14.6086L7.59888 15.2287H1.14185L0.746338 14.8654V9.32245L1.14185 8.91913H7.53931L9.90161 9.57538ZM31.6077 9.37811V14.8264L31.1204 15.2287H24.0764L22.2161 14.6086C22.1968 14.6016 22.1756 14.5979 22.1545 14.5978H21.7834L21.3186 14.1857V9.54901L21.885 8.9826H30.7883L31.6077 9.37811ZM10.0247 1.34784V3.98163C10.0247 4.00097 10.0262 4.01873 10.0315 4.03632L11.0842 7.65741V8.72089L10.5676 9.19354H9.97681L7.61548 8.53827C7.59965 8.53299 7.58131 8.53143 7.56372 8.53143H1.14185L0.746338 8.12128V4.55194C0.746338 2.45593 2.45212 0.749365 4.5481 0.749207H9.29419L10.0247 1.34784Z"/>
</mask>
<path d="M11.0833 15.343V16.5685L10.2102 22.4777L9.37524 23.3127C8.66188 23.3127 9.36419 23.3146 9.37524 23.3146L4.5481 23.3166C2.45223 23.3165 0.746557 21.6107 0.746338 19.5148V15.9865L1.14185 15.6154H7.62915C7.64846 15.6154 7.6694 15.6136 7.68872 15.6066L9.58325 14.9865H10.6956L11.0833 15.343ZM27.804 0.746277C29.9 0.746277 31.6056 2.452 31.6057 4.54803V8.04803L30.7864 8.59491H21.8059C21.7551 8.59496 21.706 8.61382 21.6692 8.65057L20.9885 9.33124C20.9535 9.36805 20.932 9.41713 20.9319 9.46796V16.6408L21.759 22.6047L20.9299 23.3166H11.2747L10.5989 22.4777L11.4661 16.6115C11.4678 16.6027 11.468 16.592 11.468 16.5832V7.63104C11.468 7.61174 11.4664 7.5939 11.4612 7.57635L10.4075 3.95526V1.34784L11.137 0.750183H20.6838L21.5139 1.42206V5.06854C21.5139 5.17569 21.6002 5.26172 21.7073 5.2619C21.8145 5.2619 21.9006 5.17581 21.9006 5.06854V1.42206L22.6604 0.750183H27.803L27.804 0.746277ZM23.9827 15.6057C24.0019 15.6126 24.0232 15.6163 24.0442 15.6164L24.0461 15.6125H31.1204L31.6077 16.0236V19.5129C31.6077 21.609 29.902 23.3146 27.8059 23.3146H23.0881L22.1418 22.5353L21.3186 16.6008V15.4016L21.7834 14.9846H22.1223L23.9827 15.6057ZM9.90161 9.57538C9.91734 9.58056 9.93494 9.58221 9.95239 9.58221H10.6604L11.0842 10.008V14.2131L10.6975 14.5998H9.55298C9.53367 14.5998 9.51273 14.6016 9.49341 14.6086L7.59888 15.2287H1.14185L0.746338 14.8654V9.32245L1.14185 8.91913H7.53931L9.90161 9.57538ZM31.6077 9.37811V14.8264L31.1204 15.2287H24.0764L22.2161 14.6086C22.1968 14.6016 22.1756 14.5979 22.1545 14.5978H21.7834L21.3186 14.1857V9.54901L21.885 8.9826H30.7883L31.6077 9.37811ZM10.0247 1.34784V3.98163C10.0247 4.00097 10.0262 4.01873 10.0315 4.03632L11.0842 7.65741V8.72089L10.5676 9.19354H9.97681L7.61548 8.53827C7.59965 8.53299 7.58131 8.53143 7.56372 8.53143H1.14185L0.746338 8.12128V4.55194C0.746338 2.45593 2.45212 0.749365 4.5481 0.749207H9.29419L10.0247 1.34784Z" fill="url(#paint0_linear_6_720)"/>
<path d="M11.0833 15.343H11.8295V15.0153L11.5883 14.7936L11.0833 15.343ZM11.0833 16.5685L11.8215 16.6776L11.8295 16.6234V16.5685H11.0833ZM10.2102 22.4777L10.7379 23.0054L10.9124 22.8309L10.9485 22.5868L10.2102 22.4777ZM9.37524 23.3127V24.059H9.68436L9.90295 23.8404L9.37524 23.3127ZM9.37524 23.3146L9.37555 24.0609L9.37708 22.5684L9.37524 23.3146ZM4.5481 23.3166L4.54805 24.0629H4.5484L4.5481 23.3166ZM0.746338 19.5148H5.51343e-05V19.5149L0.746338 19.5148ZM0.746338 15.9865L0.235701 15.4423L5.51343e-05 15.6634V15.9865H0.746338ZM1.14185 15.6154V14.8691H0.846553L0.631209 15.0712L1.14185 15.6154ZM7.68872 15.6066L7.45657 14.8974L7.44537 14.901L7.4343 14.9051L7.68872 15.6066ZM9.58325 14.9865V14.2402H9.46422L9.3511 14.2773L9.58325 14.9865ZM10.6956 14.9865L11.2007 14.4371L10.9865 14.2402H10.6956V14.9865ZM27.804 0.746277V-5.90086e-06H27.2213L27.08 0.565277L27.804 0.746277ZM31.6057 4.54803H32.352V4.548L31.6057 4.54803ZM31.6057 8.04803L32.02 8.66875L32.352 8.44717V8.04803H31.6057ZM30.7864 8.59491V9.34119H31.0126L31.2007 9.21563L30.7864 8.59491ZM21.8059 8.59491V7.84863L21.8052 7.84863L21.8059 8.59491ZM21.6692 8.65057L21.1423 8.12208L21.1415 8.12287L21.6692 8.65057ZM20.9885 9.33124L20.4608 8.80354L20.4544 8.80997L20.4481 8.81656L20.9885 9.33124ZM20.9319 9.46796L20.1856 9.46607V9.46796H20.9319ZM20.9319 16.6408H20.1856V16.6923L20.1927 16.7433L20.9319 16.6408ZM21.759 22.6047L22.2452 23.1709L22.5542 22.9056L22.4982 22.5022L21.759 22.6047ZM20.9299 23.3166V24.0629H21.2064L21.4161 23.8828L20.9299 23.3166ZM11.2747 23.3166L10.6935 23.7848L10.9175 24.0629H11.2747V23.3166ZM10.5989 22.4777L9.86062 22.3686L9.81287 22.6916L10.0177 22.9459L10.5989 22.4777ZM11.4661 16.6115L10.7343 16.4652L10.7306 16.4837L10.7278 16.5024L11.4661 16.6115ZM11.4612 7.57635L10.7446 7.78487L10.7462 7.79022L11.4612 7.57635ZM10.4075 3.95526H9.66119V4.06164L9.69091 4.16378L10.4075 3.95526ZM10.4075 1.34784L9.93452 0.770558L9.66119 0.994491V1.34784H10.4075ZM11.137 0.750183V0.00390035H10.8703L10.664 0.172902L11.137 0.750183ZM20.6838 0.750183L21.1534 0.170107L20.948 0.00390035H20.6838V0.750183ZM21.5139 1.42206H22.2602V1.066L21.9834 0.841982L21.5139 1.42206ZM21.7073 5.2619L21.706 6.00818H21.7073V5.2619ZM21.9006 1.42206L21.4063 0.863013L21.1544 1.08578V1.42206H21.9006ZM22.6604 0.750183V0.00390035H22.3778L22.166 0.191138L22.6604 0.750183ZM27.803 0.750183V1.49647H28.3857L28.527 0.931183L27.803 0.750183ZM23.9827 15.6057L24.2377 14.9043L24.2284 14.9009L24.219 14.8978L23.9827 15.6057ZM24.0442 15.6164L24.0424 16.3627L24.5049 16.3638L24.7117 15.9501L24.0442 15.6164ZM24.0461 15.6125V14.8662H23.5849L23.3786 15.2787L24.0461 15.6125ZM31.1204 15.6125L31.6016 15.0421L31.3931 14.8662H31.1204V15.6125ZM31.6077 16.0236H32.3539V15.6768L32.0889 15.4532L31.6077 16.0236ZM23.0881 23.3146L22.6137 23.8907L22.8204 24.0609H23.0881V23.3146ZM22.1418 22.5353L21.4026 22.6379L21.4427 22.9263L21.6674 23.1114L22.1418 22.5353ZM21.3186 16.6008H20.5723V16.6523L20.5794 16.7033L21.3186 16.6008ZM21.3186 15.4016L20.8203 14.846L20.5723 15.0685V15.4016H21.3186ZM21.7834 14.9846V14.2383H21.4978L21.2851 14.429L21.7834 14.9846ZM22.1223 14.9846L22.3586 14.2767L22.2436 14.2383H22.1223V14.9846ZM9.90161 9.57538L10.135 8.86654L10.1183 8.86104L10.1014 8.85633L9.90161 9.57538ZM10.6604 9.58221L11.1893 9.05573L10.9705 8.83593H10.6604V9.58221ZM11.0842 10.008H11.8305V9.69988L11.6131 9.48151L11.0842 10.008ZM11.0842 14.2131L11.6119 14.7408L11.8305 14.5222V14.2131H11.0842ZM10.6975 14.5998V15.3461H11.0066L11.2252 15.1275L10.6975 14.5998ZM9.55298 14.5998V13.8535H9.55297L9.55298 14.5998ZM9.49341 14.6086L9.72556 15.3178L9.73678 15.3142L9.74788 15.3101L9.49341 14.6086ZM7.59888 15.2287V15.975H7.71791L7.83103 15.938L7.59888 15.2287ZM1.14185 15.2287L0.637011 15.7783L0.851122 15.975H1.14185V15.2287ZM0.746338 14.8654H5.51343e-05V15.1933L0.241503 15.415L0.746338 14.8654ZM0.746338 9.32245L0.213501 8.79993L5.51343e-05 9.0176V9.32245H0.746338ZM1.14185 8.91913V8.17285H0.828441L0.609009 8.39661L1.14185 8.91913ZM7.53931 8.91913L7.73906 8.20008L7.64104 8.17285H7.53931V8.91913ZM31.6077 9.37811H32.3539V8.90967L31.9321 8.70604L31.6077 9.37811ZM31.6077 14.8264L32.0828 15.4018L32.3539 15.178V14.8264H31.6077ZM31.1204 15.2287V15.975H31.3886L31.5955 15.8042L31.1204 15.2287ZM24.0764 15.2287L23.8404 15.9367L23.9553 15.975H24.0764V15.2287ZM22.2161 14.6086L21.961 15.3099L21.9705 15.3134L21.9801 15.3166L22.2161 14.6086ZM22.1545 14.5978L22.1556 13.8516H22.1545V14.5978ZM21.7834 14.5978L21.2884 15.1563L21.5003 15.3441H21.7834V14.5978ZM21.3186 14.1857H20.5723V14.5214L20.8235 14.7442L21.3186 14.1857ZM21.3186 9.54901L20.7909 9.02131L20.5723 9.23989V9.54901H21.3186ZM21.885 8.9826V8.23632H21.5759L21.3573 8.4549L21.885 8.9826ZM30.7883 8.9826L31.1128 8.31053L30.959 8.23632H30.7883V8.9826ZM10.0247 1.34784H10.7709V0.994557L10.4977 0.770627L10.0247 1.34784ZM10.0315 4.03632L10.7481 3.82797L10.7463 3.82187L10.0315 4.03632ZM11.0842 7.65741H11.8305V7.55113L11.8008 7.44907L11.0842 7.65741ZM11.0842 8.72089L11.588 9.27149L11.8305 9.0496V8.72089H11.0842ZM10.5676 9.19354V9.93983H10.8575L11.0714 9.74414L10.5676 9.19354ZM9.97681 9.19354L9.77725 9.91265L9.87518 9.93983H9.97681V9.19354ZM7.61548 8.53827L7.37948 9.24625L7.39756 9.25228L7.41592 9.25738L7.61548 8.53827ZM1.14185 8.53143L0.604638 9.04945L0.824747 9.27772H1.14185V8.53143ZM0.746338 8.12128H5.51343e-05V8.42248L0.209131 8.6393L0.746338 8.12128ZM4.5481 0.749207V0.00292379H4.54804L4.5481 0.749207ZM9.29419 0.749207L9.76723 0.171994L9.56092 0.00292379H9.29419V0.749207ZM11.0833 15.343H10.337V16.5685H11.0833H11.8295V15.343H11.0833ZM11.0833 16.5685L10.345 16.4595L9.47194 22.3686L10.2102 22.4777L10.9485 22.5868L11.8215 16.6776L11.0833 16.5685ZM10.2102 22.4777L9.6825 21.95L8.84754 22.785L9.37524 23.3127L9.90295 23.8404L10.7379 23.0054L10.2102 22.4777ZM9.37524 23.3127V22.5664C9.19761 22.5664 9.10551 22.5665 9.0688 22.5667C9.06243 22.5667 9.04956 22.5668 9.03887 22.5671C9.03679 22.5671 9.03308 22.5672 9.02851 22.5674C9.02617 22.5675 9.01421 22.5679 8.99911 22.569C8.99465 22.5694 8.97126 22.5711 8.94178 22.5757C8.9231 22.5788 8.86885 22.5907 8.83364 22.6007C8.74326 22.6355 8.39935 22.9581 8.30955 23.3259C8.40702 23.6821 8.74597 23.9922 8.83345 24.0256C8.86808 24.0355 8.92142 24.0473 8.93977 24.0504C8.96895 24.055 8.9921 24.0568 8.99658 24.0571C9.0116 24.0583 9.02349 24.0588 9.02584 24.0589C9.03038 24.0591 9.03408 24.0592 9.03613 24.0592C9.04034 24.0594 9.04391 24.0594 9.04586 24.0595C9.05784 24.0597 9.07932 24.0598 9.09946 24.0599C9.18856 24.0604 9.36799 24.0609 9.37341 24.0609L9.37524 23.3146L9.37708 22.5684C9.37144 22.5683 9.19419 22.5679 9.10771 22.5674C9.097 22.5673 9.08808 22.5673 9.08125 22.5672C9.07342 22.5671 9.07104 22.5671 9.07182 22.5671C9.07214 22.5671 9.07438 22.5672 9.07759 22.5673C9.07915 22.5673 9.08242 22.5674 9.08663 22.5676C9.08864 22.5676 9.10027 22.5681 9.11512 22.5693C9.11952 22.5696 9.1426 22.5714 9.17174 22.576C9.19007 22.5791 9.24339 22.5909 9.27802 22.6008C9.36549 22.6342 9.70442 22.9442 9.8019 23.3005C9.7121 23.6683 9.36819 23.9909 9.27782 24.0257C9.24262 24.0357 9.18839 24.0476 9.16973 24.0507C9.14029 24.0553 9.11697 24.057 9.1126 24.0573C9.09767 24.0584 9.08598 24.0588 9.08399 24.0589C9.07977 24.0591 9.0765 24.0592 9.07496 24.0592C9.06857 24.0593 9.06589 24.0593 9.07668 24.0593C9.10857 24.0591 9.1962 24.059 9.37524 24.059V23.3127ZM9.37524 23.3146L9.37494 22.5684L4.54779 22.5703L4.5481 23.3166L4.5484 24.0629L9.37555 24.0609L9.37524 23.3146ZM4.5481 23.3166L4.54814 22.5703C2.86443 22.5702 1.4928 21.1985 1.49262 19.5148L0.746338 19.5148L5.51343e-05 19.5149C0.000317693 22.0228 2.04003 24.0627 4.54805 24.0629L4.5481 23.3166ZM0.746338 19.5148H1.49262V15.9865H0.746338H5.51343e-05V19.5148H0.746338ZM0.746338 15.9865L1.25697 16.5307L1.65248 16.1596L1.14185 15.6154L0.631209 15.0712L0.235701 15.4423L0.746338 15.9865ZM1.14185 15.6154V16.3617H7.62915V15.6154V14.8691H1.14185V15.6154ZM7.62915 15.6154V16.3617C7.68601 16.3617 7.80616 16.3579 7.94314 16.3082L7.68872 15.6066L7.4343 14.9051C7.48611 14.8863 7.53064 14.8778 7.56176 14.8737C7.59287 14.8696 7.61681 14.8691 7.62915 14.8691V15.6154ZM7.68872 15.6066L7.92087 16.3159L9.8154 15.6958L9.58325 14.9865L9.3511 14.2773L7.45657 14.8974L7.68872 15.6066ZM9.58325 14.9865V15.7328H10.6956V14.9865V14.2402H9.58325V14.9865ZM10.6956 14.9865L10.1905 15.5359L10.5782 15.8923L11.0833 15.343L11.5883 14.7936L11.2007 14.4371L10.6956 14.9865ZM27.804 0.746277V1.49256C29.4878 1.49256 30.8594 2.86413 30.8594 4.54807L31.6057 4.54803L32.352 4.548C32.3519 2.03986 30.3122 -5.90086e-06 27.804 -5.90086e-06V0.746277ZM31.6057 4.54803H30.8594V8.04803H31.6057H32.352V4.54803H31.6057ZM31.6057 8.04803L31.1914 7.42732L30.3721 7.97419L30.7864 8.59491L31.2007 9.21563L32.02 8.66875L31.6057 8.04803ZM30.7864 8.59491V7.84863H21.8059V8.59491V9.34119H30.7864V8.59491ZM21.8059 8.59491L21.8052 7.84863C21.5689 7.84885 21.327 7.93792 21.1423 8.12208L21.6692 8.65057L22.1961 9.17907C22.0851 9.28973 21.9413 9.34107 21.8066 9.34119L21.8059 8.59491ZM21.6692 8.65057L21.1415 8.12287L20.4608 8.80354L20.9885 9.33124L21.5162 9.85894L22.1969 9.17828L21.6692 8.65057ZM20.9885 9.33124L20.4481 8.81656C20.2935 8.97891 20.1863 9.20735 20.1856 9.46607L20.9319 9.46796L21.6782 9.46984C21.6778 9.62691 21.6134 9.7572 21.5289 9.84592L20.9885 9.33124ZM20.9319 9.46796H20.1856V16.6408H20.9319H21.6782V9.46796H20.9319ZM20.9319 16.6408L20.1927 16.7433L21.0198 22.7072L21.759 22.6047L22.4982 22.5022L21.6711 16.5383L20.9319 16.6408ZM21.759 22.6047L21.2729 22.0385L20.4438 22.7504L20.9299 23.3166L21.4161 23.8828L22.2452 23.1709L21.759 22.6047ZM20.9299 23.3166V22.5703H11.2747V23.3166V24.0629H20.9299V23.3166ZM11.2747 23.3166L11.8558 22.8484L11.18 22.0095L10.5989 22.4777L10.0177 22.9459L10.6935 23.7848L11.2747 23.3166ZM10.5989 22.4777L11.3371 22.5869L12.2043 16.7206L11.4661 16.6115L10.7278 16.5024L9.86062 22.3686L10.5989 22.4777ZM11.4661 16.6115L12.1979 16.7579C12.2159 16.6675 12.2143 16.5877 12.2143 16.5832H11.468H10.7217C10.7217 16.5828 10.7217 16.5799 10.7218 16.5758C10.7219 16.5716 10.7221 16.5649 10.7225 16.5564C10.7233 16.5424 10.7256 16.5087 10.7343 16.4652L11.4661 16.6115ZM11.468 16.5832H12.2143V7.63104H11.468H10.7217V16.5832H11.468ZM11.468 7.63104H12.2143C12.2143 7.57221 12.2099 7.47514 12.1762 7.36249L11.4612 7.57635L10.7462 7.79022C10.723 7.71267 10.7217 7.65128 10.7217 7.63104H11.468ZM11.4612 7.57635L12.1777 7.36784L11.124 3.74675L10.4075 3.95526L9.69091 4.16378L10.7446 7.78487L11.4612 7.57635ZM10.4075 3.95526H11.1538V1.34784H10.4075H9.66119V3.95526H10.4075ZM10.4075 1.34784L10.8804 1.92512L11.6099 1.32746L11.137 0.750183L10.664 0.172902L9.93452 0.770558L10.4075 1.34784ZM11.137 0.750183V1.49647H20.6838V0.750183V0.00390035H11.137V0.750183ZM20.6838 0.750183L20.2143 1.33026L21.0444 2.00213L21.5139 1.42206L21.9834 0.841982L21.1534 0.170107L20.6838 0.750183ZM21.5139 1.42206H20.7676V5.06854H21.5139H22.2602V1.42206H21.5139ZM21.5139 5.06854H20.7676C20.7676 5.58914 21.189 6.00729 21.706 6.00818L21.7073 5.2619L21.7086 4.51562C22.0113 4.51614 22.2602 4.76224 22.2602 5.06854H21.5139ZM21.7073 5.2619V6.00818C22.2267 6.00818 22.6469 5.58797 22.6469 5.06854H21.9006H21.1544C21.1544 4.76365 21.4024 4.51562 21.7073 4.51562V5.2619ZM21.9006 5.06854H22.6469V1.42206H21.9006H21.1544V5.06854H21.9006ZM21.9006 1.42206L22.395 1.9811L23.1548 1.30923L22.6604 0.750183L22.166 0.191138L21.4063 0.863013L21.9006 1.42206ZM22.6604 0.750183V1.49647H27.803V0.750183V0.00390035H22.6604V0.750183ZM27.803 0.750183L28.527 0.931183L28.528 0.927277L27.804 0.746277L27.08 0.565277L27.079 0.569183L27.803 0.750183ZM23.9827 15.6057L23.7276 16.307C23.8308 16.3445 23.9381 16.3624 24.0424 16.3627L24.0442 15.6164L24.046 14.8701C24.1084 14.8703 24.1729 14.8807 24.2377 14.9043L23.9827 15.6057ZM24.0442 15.6164L24.7117 15.9501L24.7136 15.9462L24.0461 15.6125L23.3786 15.2787L23.3767 15.2826L24.0442 15.6164ZM24.0461 15.6125V16.3588H31.1204V15.6125V14.8662H24.0461V15.6125ZM31.1204 15.6125L30.6391 16.1829L31.1264 16.594L31.6077 16.0236L32.0889 15.4532L31.6016 15.0421L31.1204 15.6125ZM31.6077 16.0236H30.8614V19.5129H31.6077H32.3539V16.0236H31.6077ZM31.6077 19.5129H30.8614C30.8614 21.1968 29.4899 22.5684 27.8059 22.5684V23.3146V24.0609C30.3142 24.0609 32.3539 22.0211 32.3539 19.5129H31.6077ZM27.8059 23.3146V22.5684H23.0881V23.3146V24.0609H27.8059V23.3146ZM23.0881 23.3146L23.5626 22.7386L22.6163 21.9593L22.1418 22.5353L21.6674 23.1114L22.6137 23.8907L23.0881 23.3146ZM22.1418 22.5353L22.8811 22.4328L22.0578 16.4982L21.3186 16.6008L20.5794 16.7033L21.4026 22.6379L22.1418 22.5353ZM21.3186 16.6008H22.0649V15.4016H21.3186H20.5723V16.6008H21.3186ZM21.3186 15.4016L21.8169 15.9571L22.2818 15.5401L21.7834 14.9846L21.2851 14.429L20.8203 14.846L21.3186 15.4016ZM21.7834 14.9846V15.7308H22.1223V14.9846V14.2383H21.7834V14.9846ZM22.1223 14.9846L21.886 15.6924L23.7463 16.3135L23.9827 15.6057L24.219 14.8978L22.3586 14.2767L22.1223 14.9846ZM9.90161 9.57538L9.66818 10.2842C9.78947 10.3242 9.89539 10.3285 9.95239 10.3285V9.58221V8.83593C9.96645 8.83593 9.98937 8.83655 10.0183 8.84014C10.0471 8.84372 10.0876 8.85093 10.135 8.86654L9.90161 9.57538ZM9.95239 9.58221V10.3285H10.6604V9.58221V8.83593H9.95239V9.58221ZM10.6604 9.58221L10.1315 10.1087L10.5553 10.5345L11.0842 10.008L11.6131 9.48151L11.1893 9.05573L10.6604 9.58221ZM11.0842 10.008H10.3379V14.2131H11.0842H11.8305V10.008H11.0842ZM11.0842 14.2131L10.5565 13.6854L10.1698 14.0721L10.6975 14.5998L11.2252 15.1275L11.6119 14.7408L11.0842 14.2131ZM10.6975 14.5998V13.8535H9.55298V14.5998V15.3461H10.6975V14.5998ZM9.55298 14.5998L9.55297 13.8535C9.49617 13.8535 9.37597 13.8573 9.23894 13.907L9.49341 14.6086L9.74788 15.3101C9.69604 15.3289 9.65149 15.3374 9.62035 15.3415C9.58923 15.3456 9.5653 15.3461 9.55299 15.3461L9.55298 14.5998ZM9.49341 14.6086L9.26126 13.8993L7.36672 14.5194L7.59888 15.2287L7.83103 15.938L9.72556 15.3178L9.49341 14.6086ZM7.59888 15.2287V14.4824H1.14185V15.2287V15.975H7.59888V15.2287ZM1.14185 15.2287L1.64668 14.6791L1.25117 14.3158L0.746338 14.8654L0.241503 15.415L0.637011 15.7783L1.14185 15.2287ZM0.746338 14.8654H1.49262V9.32245H0.746338H5.51343e-05V14.8654H0.746338ZM0.746338 9.32245L1.27917 9.84496L1.67468 9.44164L1.14185 8.91913L0.609009 8.39661L0.213501 8.79993L0.746338 9.32245ZM1.14185 8.91913V9.66541H7.53931V8.91913V8.17285H1.14185V8.91913ZM7.53931 8.91913L7.33955 9.63818L9.70186 10.2944L9.90161 9.57538L10.1014 8.85633L7.73906 8.20008L7.53931 8.91913ZM31.6077 9.37811H30.8614V14.8264H31.6077H32.3539V9.37811H31.6077ZM31.6077 14.8264L31.1325 14.2509L30.6452 14.6532L31.1204 15.2287L31.5955 15.8042L32.0828 15.4018L31.6077 14.8264ZM31.1204 15.2287V14.4824H24.0764V15.2287V15.975H31.1204V15.2287ZM24.0764 15.2287L24.3124 14.5207L22.4521 13.9006L22.2161 14.6086L21.9801 15.3166L23.8404 15.9367L24.0764 15.2287ZM22.2161 14.6086L22.4711 13.9072C22.3683 13.8699 22.261 13.8517 22.1556 13.8516L22.1545 14.5978L22.1535 15.3441C22.0902 15.344 22.0253 15.3333 21.961 15.3099L22.2161 14.6086ZM22.1545 14.5978V13.8516H21.7834V14.5978V15.3441H22.1545V14.5978ZM21.7834 14.5978L22.2785 14.0394L21.8137 13.6273L21.3186 14.1857L20.8235 14.7442L21.2884 15.1563L21.7834 14.5978ZM21.3186 14.1857H22.0649V9.54901H21.3186H20.5723V14.1857H21.3186ZM21.3186 9.54901L21.8463 10.0767L22.4127 9.51031L21.885 8.9826L21.3573 8.4549L20.7909 9.02131L21.3186 9.54901ZM21.885 8.9826V9.72889H30.7883V8.9826V8.23632H21.885V8.9826ZM30.7883 8.9826L30.4639 9.65468L31.2832 10.0502L31.6077 9.37811L31.9321 8.70604L31.1128 8.31053L30.7883 8.9826ZM10.0247 1.34784H9.27838V3.98163H10.0247H10.7709V1.34784H10.0247ZM10.0247 3.98163H9.27838C9.27838 4.03993 9.28268 4.1374 9.31668 4.25076L10.0315 4.03632L10.7463 3.82187C10.7698 3.90006 10.7709 3.96201 10.7709 3.98163H10.0247ZM10.0315 4.03632L9.31488 4.24465L10.3676 7.86575L11.0842 7.65741L11.8008 7.44907L10.7481 3.82798L10.0315 4.03632ZM11.0842 7.65741H10.3379V8.72089H11.0842H11.8305V7.65741H11.0842ZM11.0842 8.72089L10.5805 8.17029L10.0639 8.64294L10.5676 9.19354L11.0714 9.74414L11.588 9.27149L11.0842 8.72089ZM10.5676 9.19354V8.44726H9.97681V9.19354V9.93983H10.5676V9.19354ZM9.97681 9.19354L10.1764 8.47443L7.81503 7.81916L7.61548 8.53827L7.41592 9.25738L9.77725 9.91265L9.97681 9.19354ZM7.61548 8.53827L7.85147 7.83028C7.72483 7.78807 7.61413 7.78515 7.56372 7.78515V8.53143V9.27772C7.55151 9.27772 7.5297 9.27724 7.50151 9.27386C7.474 9.27057 7.431 9.26343 7.37948 9.24625L7.61548 8.53827ZM7.56372 8.53143V7.78515H1.14185V8.53143V9.27772H7.56372V8.53143ZM1.14185 8.53143L1.67905 8.01341L1.28355 7.60326L0.746338 8.12128L0.209131 8.6393L0.604638 9.04945L1.14185 8.53143ZM0.746338 8.12128H1.49262V4.55194H0.746338H5.51343e-05V8.12128H0.746338ZM0.746338 4.55194H1.49262C1.49262 2.86789 2.86449 1.49562 4.54815 1.49549L4.5481 0.749207L4.54804 0.00292379C2.03975 0.00311321 5.51343e-05 2.04396 5.51343e-05 4.55194H0.746338ZM4.5481 0.749207V1.49549H9.29419V0.749207V0.00292379H4.5481V0.749207ZM9.29419 0.749207L8.82115 1.32642L9.55162 1.92505L10.0247 1.34784L10.4977 0.770627L9.76723 0.171994L9.29419 0.749207Z" fill="black" fill-opacity="0.2" mask="url(#path-1-outside-1_6_720)"/>
<g filter="url(#filter0_i_6_720)">
<path d="M11.0833 15.343V16.5685L10.2102 22.4777L9.37524 23.3127C8.66188 23.3127 9.36419 23.3146 9.37524 23.3146L4.5481 23.3166C2.45223 23.3165 0.746557 21.6107 0.746338 19.5148V15.9865L1.14185 15.6154H7.62915C7.64846 15.6154 7.6694 15.6136 7.68872 15.6066L9.58325 14.9865H10.6956L11.0833 15.343ZM27.804 0.746277C29.9 0.746277 31.6056 2.452 31.6057 4.54803V8.04803L30.7864 8.59491H21.8059C21.7551 8.59496 21.706 8.61382 21.6692 8.65057L20.9885 9.33124C20.9535 9.36805 20.932 9.41713 20.9319 9.46796V16.6408L21.759 22.6047L20.9299 23.3166H11.2747L10.5989 22.4777L11.4661 16.6115C11.4678 16.6027 11.468 16.592 11.468 16.5832V7.63104C11.468 7.61174 11.4664 7.5939 11.4612 7.57635L10.4075 3.95526V1.34784L11.137 0.750183H20.6838L21.5139 1.42206V5.06854C21.5139 5.17569 21.6002 5.26172 21.7073 5.2619C21.8145 5.2619 21.9006 5.17581 21.9006 5.06854V1.42206L22.6604 0.750183H27.803L27.804 0.746277ZM23.9827 15.6057C24.0019 15.6126 24.0232 15.6163 24.0442 15.6164L24.0461 15.6125H31.1204L31.6077 16.0236V19.5129C31.6077 21.609 29.902 23.3146 27.8059 23.3146H23.0881L22.1418 22.5353L21.3186 16.6008V15.4016L21.7834 14.9846H22.1223L23.9827 15.6057ZM9.90161 9.57538C9.91734 9.58056 9.93494 9.58221 9.95239 9.58221H10.6604L11.0842 10.008V14.2131L10.6975 14.5998H9.55298C9.53367 14.5998 9.51273 14.6016 9.49341 14.6086L7.59888 15.2287H1.14185L0.746338 14.8654V9.32245L1.14185 8.91913H7.53931L9.90161 9.57538ZM31.6077 9.37811V14.8264L31.1204 15.2287H24.0764L22.2161 14.6086C22.1968 14.6016 22.1756 14.5979 22.1545 14.5978H21.7834L21.3186 14.1857V9.54901L21.885 8.9826H30.7883L31.6077 9.37811ZM10.0247 1.34784V3.98163C10.0247 4.00097 10.0262 4.01873 10.0315 4.03632L11.0842 7.65741V8.72089L10.5676 9.19354H9.97681L7.61548 8.53827C7.59965 8.53299 7.58131 8.53143 7.56372 8.53143H1.14185L0.746338 8.12128V4.55194C0.746338 2.45593 2.45212 0.749365 4.5481 0.749207H9.29419L10.0247 1.34784Z" fill="url(#paint1_linear_6_720)"/>
</g>
<defs>
<filter id="filter0_i_6_720" x="-0.912068" y="0.746277" width="32.5197" height="25.0579" filterUnits="userSpaceOnUse" color-interpolation-filters="sRGB">
<feFlood flood-opacity="0" result="BackgroundImageFix"/>
<feBlend mode="normal" in="SourceGraphic" in2="BackgroundImageFix" result="shape"/>
<feColorMatrix in="SourceAlpha" type="matrix" values="0 0 0 0 0 0 0 0 0 0 0 0 0 0 0 0 0 0 127 0" result="hardAlpha"/>
<feOffset dx="-1.65841" dy="2.48761"/>
<feGaussianBlur stdDeviation="4.14602"/>
<feComposite in2="hardAlpha" operator="arithmetic" k2="-1" k3="1"/>
<feColorMatrix type="matrix" values="0 0 0 0 1 0 0 0 0 1 0 0 0 0 1 0 0 0 0.5 0"/>
<feBlend mode="normal" in2="shape" result="effect1_innerShadow_6_720"/>
</filter>
<linearGradient id="paint0_linear_6_720" x1="21.5701" y1="-0.0163541" x2="13.2888" y2="22.6938" gradientUnits="userSpaceOnUse">
<stop stop-color="#FFF6F2"/>
<stop offset="0.931153" stop-color="#C2B8B2"/>
</linearGradient>
<linearGradient id="paint1_linear_6_720" x1="13.5401" y1="-0.141825" x2="13.1637" y2="26.96" gradientUnits="userSpaceOnUse">
<stop stop-color="#FFF6F2"/>
<stop offset="0.931153" stop-color="#C2B8B2"/>
</linearGradient>
</defs>
</svg>
