<svg preserveAspectRatio="none" width="100%" height="100%" overflow="visible" style="display: block;" viewBox="0 0 221.2 224.665" fill="none" xmlns="http://www.w3.org/2000/svg">
<path id="Line_01" d="M51.563 224.665C44.4522 224.665 37.7629 223.665 31.6705 221.576C17.3787 216.697 7.4236 206.395 2.85867 191.827C-5.93761 163.728 5.84346 123.799 34.3743 85.0108C78.145 25.5474 147.743 -11.2048 189.529 3.08188C203.821 7.96111 213.776 18.2636 218.341 32.8311C227.137 60.9305 215.356 100.859 186.826 139.647C149.446 190.44 93.2268 224.648 51.5806 224.665H51.563ZM169.022 7.82067C130.115 7.82067 76.6877 40.8871 40.7476 89.7145C14.0955 125.923 2.47244 164.131 10.4084 189.458C14.2359 201.708 22.2596 209.993 34.2162 214.082C39.6941 215.96 45.7164 216.855 52.1424 216.855C91.0497 216.855 144.477 183.789 180.417 134.961C207.069 98.7533 218.692 60.5444 210.756 35.2181C206.929 22.9673 198.905 14.6832 186.948 10.5938C181.47 8.7158 175.448 7.82067 169.022 7.82067Z" fill="url(#paint0_linear_0_109)"/>
<defs>
<linearGradient id="paint0_linear_0_109" x1="8.5428" y1="142.563" x2="272.602" y2="28.2057" gradientUnits="userSpaceOnUse">
<stop stop-color="#FFAAE0"/>
<stop offset="1" stop-color="#FF6363"/>
</linearGradient>
</defs>
</svg>
