<svg preserveAspectRatio="xMidYMid meet" width="100%" height="100%" overflow="visible" style="display: block;" viewBox="0 0 452.603 427.632" fill="none" xmlns="http://www.w3.org/2000/svg">
<g id="Subs.coin_01" clip-path="url(#clip0_0_4)">
<path id="Front_01" d="M145.036 189.642C140.563 153.241 141.089 115.266 153.115 80.311C161.721 54.9086 179.407 28.335 207.602 23.4413C216.646 21.814 226.054 22.2686 234.897 24.7891C234.85 24.7644 234.804 24.7397 234.749 24.7304C290.155 40.2279 343.351 125.492 355.92 221.617C369.127 322.516 332.555 397.175 274.243 388.361C215.93 379.548 157.959 290.589 144.775 189.683C144.901 189.67 145.036 189.642 145.036 189.642Z" fill="url(#paint0_linear_0_4)"/>
<path id="Side_01" d="M167.504 31.0086L195.243 23.6851C183.463 27.8325 172.893 35.9051 164.763 46.8275C146.169 71.7446 139.542 103.848 138.797 134.21C138.417 152.877 140.315 171.563 144.528 189.713C144.528 189.713 144.654 189.7 144.788 189.672C157.996 290.572 215.951 379.523 274.255 388.351C280.625 389.316 286.723 389.222 292.546 388.266L292.608 388.299C292.608 388.299 236.219 400.175 226.078 398.633C167.766 389.82 109.795 300.861 96.6111 199.954C84.31 105.94 111.209 42.6356 167.521 30.9776L167.504 31.0086Z" fill="#FF4F40"/>
<path id="Line_01" d="M249.617 332.525C255.894 335.867 262.269 338.127 268.63 339.147C283.54 341.557 297.174 337.144 308.056 326.433C329.038 305.77 337.42 264.998 330.481 217.362C319.814 144.32 275.667 79.1827 232.061 72.1542C217.15 69.7441 203.517 74.1577 192.635 84.8679C171.653 105.531 163.27 146.303 170.21 193.939C179.313 256.327 212.848 312.932 249.602 332.517L249.617 332.525ZM247.934 85.9724C282.278 104.255 313.885 158.541 322.642 218.518C329.137 262.995 321.424 302.174 302.506 320.795C293.365 329.807 282.386 333.347 269.908 331.337C264.189 330.42 258.452 328.381 252.78 325.361C218.436 307.078 186.828 252.792 178.071 192.815C171.576 148.339 179.289 109.159 198.207 90.5384C207.348 81.5262 218.328 77.9862 230.806 79.996C236.524 80.9129 242.261 82.9528 247.934 85.9724Z" fill="url(#paint1_linear_0_4)"/>
<path id="Lighting_01" d="M234.917 24.8025C208.385 13.9986 181.431 24.4041 164.763 46.8273C146.169 71.7444 139.543 103.847 138.798 134.21C138.418 152.877 140.315 171.563 144.529 189.713L145.041 189.647C140.569 153.246 141.094 115.271 153.12 80.3161C161.726 54.9137 179.412 28.3401 207.607 23.4464C216.651 21.8191 226.059 22.2737 234.902 24.7942L234.917 24.8025Z" fill="url(#paint2_linear_0_4)"/>
</g>
<defs>
<linearGradient id="paint0_linear_0_4" x1="139.633" y1="172.023" x2="358.603" y2="346.589" gradientUnits="userSpaceOnUse">
<stop stop-color="#FF5041"/>
<stop offset="1" stop-color="#FFA4D6"/>
</linearGradient>
<linearGradient id="paint1_linear_0_4" x1="326.211" y1="280.289" x2="146.996" y2="55.2233" gradientUnits="userSpaceOnUse">
<stop stop-color="#FFAAE0"/>
<stop offset="1" stop-color="#FF6363"/>
</linearGradient>
<linearGradient id="paint2_linear_0_4" x1="157.688" y1="48.1192" x2="145.666" y2="200.896" gradientUnits="userSpaceOnUse">
<stop stop-color="#FF97BF"/>
<stop offset="1" stop-color="#FF5144"/>
</linearGradient>
<clipPath id="clip0_0_4">
<rect width="452.603" height="427.632" fill="white"/>
</clipPath>
</defs>
</svg>
